{
    "asset" : {
        "generator" : "Khronos glTF Blender I/O v3.3.32",
        "version" : "2.0"
    },
    "scene" : 0,
    "scenes" : [
        {
            "name" : "Scene",
            "nodes" : [
                0,
                1
            ]
        }
    ],
    "nodes" : [
        {
            "mesh" : 0,
            "name" : "a"
        },
        {
            "mesh" : 1,
            "name" : "a.001"
        }
    ],
    "materials" : [
        {
            "alphaMode" : "BLEND",
            "name" : "monkey glass_1.002",
            "pbrMetallicRoughness" : {
                "baseColorFactor" : [
                    0.14240071177482605,
                    0.14240071177482605,
                    0.14240071177482605,
                    0.40425536036491394
                ],
                "metallicFactor" : 0.7872340083122253,
                "roughnessFactor" : 0
            }
        },
        {
            "doubleSided" : true,
            "name" : "Material",
            "pbrMetallicRoughness" : {
                "baseColorFactor" : [
                    0,
                    0,
                    0,
                    1
                ],
                "metallicFactor" : 0,
                "roughnessFactor" : 0.5
            }
        }
    ],
    "meshes" : [
        {
            "name" : "a.001",
            "primitives" : [
                {
                    "attributes" : {
                        "POSITION" : 0,
                        "NORMAL" : 1
                    },
                    "indices" : 2,
                    "material" : 0
                }
            ]
        },
        {
            "name" : "a.002",
            "primitives" : [
                {
                    "attributes" : {
                        "POSITION" : 3,
                        "NORMAL" : 4
                    },
                    "indices" : 5,
                    "material" : 1
                }
            ]
        }
    ],
    "accessors" : [
        {
            "bufferView" : 0,
            "componentType" : 5126,
            "count" : 34,
            "max" : [
                212.65774536132812,
                467.0799865722656,
                278.5794372558594
            ],
            "min" : [
                116.21497344970703,
                107.08000183105469,
                31.523181915283203
            ],
            "type" : "VEC3"
        },
        {
            "bufferView" : 1,
            "componentType" : 5126,
            "count" : 34,
            "type" : "VEC3"
        },
        {
            "bufferView" : 2,
            "componentType" : 5123,
            "count" : 36,
            "type" : "SCALAR"
        },
        {
            "bufferView" : 3,
            "componentType" : 5126,
            "count" : 60968,
            "max" : [
                146.26625061035156,
                469.5799865722656,
                158
            ],
            "min" : [
                140.26625061035156,
                102.54558563232422,
                152
            ],
            "type" : "VEC3"
        },
        {
            "bufferView" : 4,
            "componentType" : 5126,
            "count" : 60968,
            "type" : "VEC3"
        },
        {
            "bufferView" : 5,
            "componentType" : 5123,
            "count" : 82506,
            "type" : "SCALAR"
        }
    ],
    "bufferViews" : [
        {
            "buffer" : 0,
            "byteLength" : 408,
            "byteOffset" : 0,
            "target" : 34962
        },
        {
            "buffer" : 0,
            "byteLength" : 408,
            "byteOffset" : 408,
            "target" : 34962
        },
        {
            "buffer" : 0,
            "byteLength" : 72,
            "byteOffset" : 816,
            "target" : 34963
        },
        {
            "buffer" : 0,
            "byteLength" : 731616,
            "byteOffset" : 888,
            "target" : 34962
        },
        {
            "buffer" : 0,
            "byteLength" : 731616,
            "byteOffset" : 732504,
            "target" : 34962
        },
        {
            "buffer" : 0,
            "byteLength" : 165012,
            "byteOffset" : 1464120,
            "target" : 34963
        }
    ],
    "buffers" : [
        {
            "byteLength" : 1629132,
            "uri" : "data:application/octet-stream;base64,"
        }
    ]
}
